<svg width="667" height="509" viewBox="0 0 667 509" fill="none" xmlns="http://www.w3.org/2000/svg">
<g clip-path="url(#clip0_113_3)">
<path d="M0 556.583H666.667V-108.811H0V556.583Z" fill="white"/>
<path d="M83.3164 422.381C83.3164 422.381 153.625 -20.1298 258.282 98.8706C362.939 217.87 378.091 422.381 378.091 422.381C378.091 422.381 388.897 80.0852 494.107 96.6149C599.319 113.146 574.521 434.622 574.521 434.622L83.3164 422.381Z" fill="#F2F3FB"/>
<path d="M53.2649 411.603C55.2135 416.506 57.9655 421.245 61.2884 425.555C77.7108 446.861 104.659 461.552 132.063 471.63C205.336 498.58 287.956 499.792 368.016 502.902C408.029 504.457 448.265 506.587 488.037 502.62C527.809 498.654 567.617 488.133 598.539 467.003C610.445 458.865 620.977 449.141 628.005 437.747C641.449 415.948 640.416 391.317 640.634 367.541C640.774 352.252 637.747 336.415 623.008 325.712C598.872 308.182 560.874 313.727 531.552 313.577C485.813 313.346 501.484 334.661 408.387 288.511C315.288 242.358 287.729 206.07 242.565 266.076C197.401 326.082 135.487 334.379 69.9577 366.442C49.2577 376.57 46.6744 395.026 53.2649 411.603Z" fill="#FEF4E9"/>
<path d="M259.359 110.814C247.065 114.965 238.405 126.265 245.962 138.746C251.594 148.051 246.821 154.589 240.791 161.901C238.586 164.574 236.814 168.17 238.023 171.417C242.098 182.363 257.79 178.123 256.017 193.325C255.623 196.689 254.881 200.136 255.726 203.417C256.539 206.57 258.77 209.217 261.413 211.127C267.414 215.46 276.794 216.812 283.807 214.486C287.282 213.333 290.311 211.225 291.813 207.794C294.171 202.406 290.746 197.092 291.857 191.625C292.767 187.151 296.073 183.618 299.813 181.208C302.863 179.242 306.091 177.476 308.689 174.943C315.571 168.231 312.818 160.651 305.822 155.526C302.375 153.002 298.333 151.163 294.575 149.144C292.206 147.87 289.869 146.211 288.773 143.757C285.386 136.171 298.623 134.55 296.822 126.498C293.097 109.855 273.467 106.052 259.359 110.814Z" fill="#4BAD99"/>
<path d="M272.168 238.941H273.673V133.918H272.168V238.941Z" fill="#28534D"/>
<path d="M449.122 104.423C436.829 108.573 428.169 119.873 435.725 132.356C441.358 141.659 436.584 148.199 430.554 155.51C428.35 158.182 426.578 161.78 427.786 165.027C431.861 175.972 447.553 171.733 445.78 186.933C445.386 190.298 444.644 193.745 445.49 197.025C446.304 200.179 448.533 202.826 451.177 204.735C457.177 209.069 466.558 210.421 473.572 208.095C477.045 206.943 480.076 204.835 481.577 201.404C483.934 196.015 480.509 190.7 481.621 185.235C482.529 180.759 485.837 177.226 489.577 174.816C492.628 172.85 495.856 171.084 498.453 168.552C505.334 161.839 502.582 154.261 495.585 149.134C492.138 146.611 488.096 144.772 484.34 142.753C481.97 141.48 479.633 139.819 478.536 137.366C475.149 129.781 488.388 128.159 486.585 120.107C482.861 103.464 463.232 99.6597 449.122 104.423Z" fill="#4BAD99"/>
<path d="M461.934 232.551H463.439V127.526H461.934V232.551Z" fill="#28534D"/>
<path d="M554.463 116.155C559.405 115.965 563.558 120.167 562.977 125.364C562.609 128.668 560.114 131.528 556.886 132.348C551.807 133.638 547.065 130.108 546.575 125.195C546.387 120.572 549.849 116.606 554.463 116.155ZM552.137 145.341L560.279 144.78L559.954 140.069C561.482 139.569 562.906 138.857 564.194 137.964L567.762 141.065L573.122 134.922L569.555 131.821C570.262 130.425 570.774 128.92 571.062 127.339L575.781 127.014L575.219 118.887L570.499 119.213C569.998 117.687 569.285 116.267 568.39 114.98L571.497 111.42L565.342 106.069L562.237 109.63C560.837 108.922 559.329 108.413 557.746 108.126L557.419 103.415L549.277 103.976L549.602 108.687C548.075 109.188 546.651 109.9 545.361 110.792L541.795 107.691L536.434 113.834L540.002 116.935C539.294 118.332 538.782 119.836 538.495 121.416L533.775 121.742L534.337 129.869L539.057 129.543C539.559 131.069 540.271 132.489 541.166 133.776L538.059 137.337L544.214 142.687L547.321 139.127C548.721 139.834 550.229 140.343 551.81 140.63L552.137 145.341Z" fill="#D9DBF1"/>
<path d="M597.958 109.735C600.818 109.625 603.222 112.057 602.886 115.066C602.672 116.979 601.23 118.634 599.36 119.109C596.419 119.856 593.675 117.812 593.391 114.968C593.283 112.291 595.286 109.995 597.958 109.735ZM596.611 126.629L601.324 126.306L601.136 123.578C602.022 123.289 602.844 122.877 603.591 122.359L605.656 124.155L608.759 120.598L606.695 118.804C607.104 117.995 607.4 117.124 607.567 116.209L610.299 116.02L609.972 111.316L607.242 111.504C606.951 110.621 606.538 109.799 606.02 109.054L607.818 106.992L604.255 103.896L602.458 105.957C601.646 105.547 600.774 105.252 599.858 105.085L599.668 102.358L594.955 102.683L595.143 105.41C594.258 105.7 593.435 106.113 592.688 106.629L590.623 104.834L587.52 108.391L589.584 110.186C589.175 110.994 588.879 111.866 588.712 112.78L585.98 112.968L586.306 117.673L589.038 117.484C589.328 118.368 589.742 119.19 590.259 119.936L588.462 121.997L592.024 125.094L593.822 123.032C594.634 123.442 595.506 123.738 596.422 123.904L596.611 126.629Z" fill="#D9DBF1"/>
<path d="M594.087 141.452C596.425 141.363 598.389 143.35 598.114 145.808C597.939 147.37 596.759 148.722 595.234 149.111C592.831 149.72 590.589 148.051 590.358 145.728C590.269 143.54 591.906 141.665 594.087 141.452ZM592.987 155.255L596.838 154.99L596.685 152.762C597.407 152.524 598.081 152.189 598.69 151.766L600.377 153.232L602.913 150.327L601.225 148.862C601.559 148.2 601.802 147.488 601.937 146.742L604.17 146.587L603.905 142.744L601.671 142.898C601.434 142.176 601.097 141.505 600.674 140.896L602.143 139.212L599.233 136.682L597.763 138.366C597.102 138.032 596.389 137.791 595.639 137.655L595.486 135.427L591.635 135.692L591.79 137.92C591.066 138.157 590.394 138.494 589.783 138.915L588.097 137.449L585.562 140.354L587.249 141.821C586.914 142.482 586.673 143.193 586.535 143.941L584.305 144.095L584.57 147.937L586.802 147.784C587.039 148.505 587.377 149.177 587.799 149.785L586.33 151.469L589.241 153.999L590.71 152.315C591.371 152.651 592.085 152.891 592.834 153.027L592.987 155.255Z" fill="#D9DBF1"/>
<path d="M54.3398 328.092C55.2596 323.242 60.2918 320.142 65.2366 321.869C68.3809 322.967 70.6148 326.034 70.6929 329.358C70.8158 334.587 66.309 338.411 61.4013 337.788C56.845 336.934 53.7466 332.681 54.3398 328.092ZM82.318 336.885L83.5929 328.839L78.9194 328.103C78.7726 326.502 78.3961 324.958 77.8128 323.505L81.6393 320.729L76.8404 314.139L73.0137 316.915C71.8076 315.914 70.4533 315.08 68.9742 314.448L69.7133 309.783L61.6513 308.511L60.9128 313.175C59.3101 313.322 57.7637 313.698 56.3076 314.28L53.5262 310.462L46.9242 315.25L49.706 319.07C48.7024 320.274 47.8669 321.625 47.232 323.102L42.5596 322.365L41.2852 330.41L45.9581 331.148C46.1054 332.747 46.482 334.291 47.0648 335.744L43.2388 338.522L48.0382 345.11L51.8637 342.334C53.07 343.335 54.4242 344.17 55.9033 344.802L55.1642 349.466L63.2262 350.738L63.9642 346.074C65.5674 345.927 67.1137 345.552 68.5705 344.969L71.3518 348.789L77.9533 343.999L75.1716 340.18C76.1752 338.975 77.0106 337.623 77.6456 336.148L82.318 336.885Z" fill="#D9DBF1"/>
<path d="M57.8015 284.345C58.3343 281.537 61.2472 279.743 64.1097 280.744C65.93 281.379 67.2233 283.154 67.2687 285.077C67.34 288.106 64.7311 290.319 61.89 289.959C59.252 289.465 57.4581 287.003 57.8015 284.345ZM73.9988 289.437L74.7368 284.778L72.0316 284.352C71.9463 283.426 71.7285 282.531 71.3905 281.69L73.6061 280.084L70.8275 276.267L68.6129 277.875C67.9144 277.296 67.13 276.813 66.2744 276.446L66.702 273.747L62.0348 273.01L61.6067 275.71C60.6791 275.795 59.7837 276.013 58.9411 276.35L57.3305 274.139L53.5092 276.911L55.1191 279.123C54.5384 279.819 54.0545 280.602 53.6873 281.457L50.9821 281.029L50.2441 285.687L52.9493 286.115C53.0348 287.04 53.2524 287.934 53.59 288.775L51.3748 290.383L54.1535 294.197L56.3687 292.591C57.0665 293.171 57.8509 293.653 58.7072 294.019L58.2796 296.719L62.9463 297.455L63.3739 294.756C64.3015 294.67 65.1967 294.453 66.0405 294.116L67.6504 296.328L71.4723 293.554L69.8619 291.343C70.4425 290.647 70.9264 289.864 71.2936 289.01L73.9988 289.437Z" fill="#D9DBF1"/>
<path d="M87.9082 295.207C88.3432 292.913 90.7234 291.449 93.0614 292.265C94.5489 292.784 95.6052 294.233 95.6421 295.806C95.7 298.279 93.5688 300.087 91.2478 299.793C89.0926 299.389 87.6276 297.378 87.9082 295.207ZM101.14 299.366L101.742 295.56L99.5328 295.213C99.463 294.455 99.2849 293.725 99.0093 293.038L100.819 291.726L98.5489 288.609L96.7396 289.923C96.1692 289.449 95.5286 289.055 94.8292 288.754L95.1786 286.549L91.3661 285.948L91.0172 288.153C90.2593 288.223 89.5276 288.402 88.8385 288.676L87.5234 286.87L84.401 289.135L85.7172 290.941C85.2421 291.509 84.8468 292.149 84.5468 292.848L82.3374 292.499L81.7344 296.304L83.9442 296.654C84.0134 297.408 84.1921 298.139 84.4677 298.827L82.6582 300.139L84.9281 303.256L86.7369 301.942C87.3073 302.418 87.9478 302.811 88.6478 303.11L88.2984 305.315L92.1109 305.917L92.4604 303.711C93.2177 303.643 93.9494 303.465 94.638 303.189L95.9536 304.995L99.0754 302.73L97.7598 300.924C98.2344 300.355 98.6297 299.715 98.9297 299.017L101.14 299.366Z" fill="#D9DBF1"/>
<path d="M425.131 143.577C425.131 143.577 418.907 137.975 418.024 129.953C417.855 128.423 419.752 127.548 420.848 128.63L426.476 134.182L423.26 127.943C423.26 127.943 425.576 126.973 427.683 130.802L428.306 131.909C429.034 133.205 429.911 134.409 430.792 135.608C431.514 136.589 432.251 138.171 431.639 140.121L425.131 143.577Z" fill="#FBC3A9"/>
<path d="M432.638 139.191C432.39 139.317 438.73 146.913 439.304 147.524C446.071 154.718 453.791 160.904 463.107 164.432C472.21 167.879 482.195 168.834 491.788 167.167C493.747 166.826 495.686 166.379 497.595 165.828C497.595 165.828 505.426 162.253 509.423 164.93C517.222 170.15 513.754 179.588 507.436 183.088C506.659 183.519 505.538 184 504.154 184.515C479.854 193.567 452.511 184.704 437.51 163.585C434.034 158.693 430.342 153.28 426.522 147.372L424.203 143.288L432.638 139.191Z" fill="#171B24"/>
<path d="M433.775 142.389L426.871 145.476L427.036 145.844L433.939 142.757" fill="#21293F"/>
<path d="M548.085 354.461C548.085 354.461 580.656 283.289 564.361 239.385L543.828 253.563L559.072 220.59C559.072 220.59 518.115 178.693 487.168 224.364L511.103 241.96L481.357 240.668L484.448 267.062L519.749 284.188L492.936 283.679C492.936 283.679 513.681 332.629 548.085 354.461Z" fill="#38437F"/>
<path d="M528.885 246.221L551.582 380.56L552.55 380.398L529.854 246.057" fill="#202740"/>
<path d="M556.658 362.095L557.022 362.694C557.043 362.679 569.639 355.037 583.31 343.102C596.972 331.161 611.742 314.956 616.028 297.632L616.244 296.756L599.167 296.913L620.77 283.917L620.684 283.443C620.675 283.398 619.27 275.538 614.646 267.619C612.332 263.659 609.208 259.68 605.026 256.681C600.846 253.68 595.597 251.673 589.135 251.676C584.547 251.676 579.352 252.68 573.482 255.023L572.856 255.271L579.752 274.736L563.007 262.303L553.228 281.067L566.528 304.127L551.807 293.746L551.596 294.803C551.592 294.832 549.132 307.201 549.131 323.051C549.134 335.433 550.627 349.941 556.015 362.373L556.334 363.111L557.022 362.694L556.658 362.095L557.3 361.818C552.028 349.666 550.531 335.32 550.532 323.051C550.532 315.198 551.143 308.197 551.754 303.163C552.059 300.645 552.364 298.619 552.592 297.226C552.707 296.529 552.801 295.99 552.868 295.625C552.935 295.26 552.971 295.075 552.971 295.075L552.284 294.94L551.88 295.511L570.919 308.937L554.827 281.033L563.491 264.406L582.607 278.599L574.401 255.439L573.742 255.672L574.001 256.321C579.737 254.034 584.752 253.074 589.135 253.074C595.307 253.077 600.232 254.969 604.208 257.816C610.167 262.085 613.963 268.553 616.247 273.969C617.391 276.675 618.156 279.114 618.636 280.872C618.876 281.75 619.044 282.459 619.152 282.947C619.206 283.19 619.244 283.378 619.27 283.503C619.295 283.629 619.306 283.689 619.306 283.689L619.995 283.567L619.634 282.968L594.05 298.358L615.355 298.164L615.348 297.464L614.667 297.296C610.54 314.095 595.964 330.206 582.386 342.05C575.6 347.974 569.072 352.841 564.243 356.222C561.828 357.914 559.838 359.235 558.454 360.131C557.76 360.579 557.219 360.923 556.852 361.152C556.484 361.382 556.295 361.498 556.294 361.498L556.658 362.095Z" fill="#60C8B0"/>
<path d="M590.372 286.767L547.758 379.752L548.535 380.106L591.148 287.121" fill="#459C85"/>
<path d="M529.367 382.488C529.367 382.488 554.47 359.144 569.453 384.417C584.435 409.688 529.367 382.488 529.367 382.488Z" fill="#FEF4E9"/>
<path d="M181.68 158.789C181.205 157.174 180.808 155.533 180.551 153.868C179.716 148.495 178.04 142.18 174.688 140.144C170.696 137.719 165.245 137.911 161.009 139.561C151.94 143.097 152.533 154.128 151.591 162.235C151.425 163.656 149.012 181.727 150.345 181.909L162.823 183.602C162.823 183.602 163.76 175.313 165.201 173.105C165.432 172.752 165.888 172.628 166.285 172.772C167.672 173.275 171.584 174.626 173.861 174.76C176.215 174.9 178.476 165.881 179.139 162.996C179.252 162.498 179.727 162.175 180.233 162.247L182.084 162.504C182.439 162.553 182.728 162.228 182.62 161.886C182.371 161.094 182.028 159.977 181.68 158.789Z" fill="#FBC3A9"/>
<path d="M236.458 210.809C236.458 210.809 245.139 209.94 250.838 203.753C251.923 202.574 250.873 200.672 249.285 200.904L241.133 202.099L247.685 198.843C247.685 198.843 246.342 196.605 242.21 198.52L241.003 199.066C239.59 199.706 238.111 200.177 236.631 200.639C235.421 201.018 233.823 201.891 233.133 203.903L236.458 210.809Z" fill="#FBC3A9"/>
<path d="M149.751 191.812C150.904 186.663 159.222 178.477 172.432 190.114C188.242 204.036 204.295 212.604 233.134 203.903L236.459 210.809C236.459 210.809 212.219 234.873 166.976 214.213C153.77 208.182 147.846 200.317 149.751 191.812Z" fill="#515EB4"/>
<path d="M152.962 178.021C146.756 177.607 140.75 182.363 141.185 188.557C143.837 226.346 130.402 258.879 130.402 258.879H172.398C172.398 258.879 168.738 225.099 169.672 222.609C170.152 221.333 172.91 219.803 175.488 217.326C179.624 213.348 180.058 206.866 176.684 202.226L163.713 184.395C161.352 180.682 157.358 178.315 152.962 178.021Z" fill="white"/>
<path d="M148.803 178.705L149.039 177.444C147.544 178.108 156.924 174.535 163.747 180.951L164.376 185.436C164.376 185.436 158.161 180.145 148.803 178.705Z" fill="#515EB4"/>
<path d="M164.437 258.879H172.398L167.922 396.752H161.976C161.976 396.752 151.258 353.798 154.129 325.465C156.589 292.84 151.314 278.7 151.314 278.7L164.437 258.879Z" fill="#171A24"/>
<path d="M168.069 258.879L156.92 321.888C156.701 323.121 156.236 324.297 155.552 325.346L116.485 385.238L110.338 382.677C110.338 382.677 123.992 342.086 139.064 320.066C140.303 318.258 140.693 316.016 140.163 313.889L133.106 285.63C133.05 285.407 132.99 285.189 132.921 284.971C132.326 283.096 128.939 271.662 130.403 258.879H168.069Z" fill="#21293F"/>
<path d="M161.976 396.752L161.299 393.885H168.069L167.923 396.752H161.976Z" fill="#F9C39F"/>
<path d="M110.338 382.677L116.485 385.238L118.38 382.334L111.359 379.738L110.338 382.677Z" fill="#F9C39F"/>
<path d="M162.872 191.329L161.857 258.879H130.402C130.402 258.879 142.51 219.67 141.382 205.299C140.254 190.927 137.732 181.313 148.802 178.705L149.133 178.63C156.821 176.948 163.818 183.529 162.872 191.329Z" fill="#5662B7"/>
<path d="M174.376 258.879L169.672 222.609V258.879H174.376Z" fill="#515EB4"/>
<path d="M210.4 249.115C210.4 249.115 218.54 252.253 226.423 249.304C227.926 248.742 227.848 246.571 226.327 246.063L218.514 243.453L225.832 243.502C225.832 243.502 225.647 240.901 221.094 240.746L219.771 240.689C218.22 240.622 216.688 240.376 215.158 240.121C213.907 239.913 212.086 239.973 210.559 241.455L210.4 249.115Z" fill="#FBC3A9"/>
<path d="M141.717 189.443C145.232 185.501 156.484 182.379 162.37 198.954C169.414 218.788 181.116 235.08 210.558 241.455L210.4 249.115C210.4 249.115 175.365 257.368 145.873 217.375C137.264 205.7 135.914 195.953 141.717 189.443Z" fill="#5662B7"/>
<path d="M136.895 171.083C136.869 171.501 136.863 171.912 136.875 172.315L137.001 172.237C136.951 171.862 136.918 171.474 136.895 171.083Z" fill="#F46952"/>
<path d="M144.381 153.223C144.36 152.719 144.341 152.166 144.326 151.609C144.312 152.782 144.338 153.887 144.381 154.858C144.396 155.211 144.406 155.518 144.417 155.823C144.448 155.125 144.426 154.297 144.381 153.223Z" fill="#F46952"/>
<path d="M160.723 159.593C161.2 161.076 161.849 163.933 161.96 167.038C162.047 164.266 161.628 161.544 161.173 159.614L161.085 159.621C160.964 159.617 160.843 159.606 160.723 159.593Z" fill="#F46952"/>
<path d="M188.532 143.263C187.648 139.956 184.748 137.704 181.132 137.509C179.318 134.074 175.446 130.499 168.198 130.168C167.362 130.131 166.471 130.135 165.518 130.189C151.515 131.004 144.703 142.571 144.338 150.526C144.32 150.907 144.33 151.246 144.326 151.608C144.34 152.166 144.359 152.718 144.38 153.223C144.426 154.297 144.447 155.124 144.416 155.823C144.507 158.672 144.311 159.66 142.582 161.097C138.442 164.533 137.086 167.98 136.894 171.083C136.916 171.474 136.95 171.862 136.999 172.237L136.874 172.315C136.89 172.848 136.934 173.368 136.999 173.874L136.679 174.071C132.993 176.34 125.321 181.064 124.471 194.798C124.42 195.62 124.416 196.407 124.406 197.197C124.197 214.355 133.288 223.887 133.694 224.303L138.282 229.12L140.519 223.199C140.715 222.794 145.328 213.096 146.204 198.018C146.847 186.943 149.628 179.711 153.291 179.592C156.004 179.502 158.342 178.26 159.872 176.097C161.628 173.613 162.072 170.198 161.959 167.037C161.848 163.933 161.199 161.076 160.722 159.593C160.842 159.606 160.963 159.617 161.084 159.621L161.172 159.614C161.019 158.965 160.863 158.395 160.722 157.958C160.842 157.971 160.963 157.98 161.084 157.985C163 158.073 164.874 157.158 166.222 155.473C167.376 154.028 168.082 152.134 168.256 150.255C168.33 149.49 168.311 148.726 168.202 147.998C168.15 147.649 168.078 147.309 167.983 146.98C167.968 146.798 168.018 146.541 168.104 146.263C170.462 148.784 174.375 152.055 178.958 152.266C180.975 152.358 182.867 151.86 184.58 150.789C187.011 149.265 188.48 146.936 188.743 144.437C188.699 144.045 188.638 143.653 188.532 143.263Z" fill="#F5756C"/>
<path d="M160.014 244.73C160.014 245.235 159.606 245.643 159.101 245.643C158.597 245.643 158.188 245.235 158.188 244.73C158.188 244.227 158.597 243.819 159.101 243.819C159.606 243.819 160.014 244.227 160.014 244.73Z" fill="white"/>
<path d="M160.014 251.114C160.014 251.619 159.606 252.027 159.101 252.027C158.597 252.027 158.188 251.619 158.188 251.114C158.188 250.611 158.597 250.201 159.101 250.201C159.606 250.201 160.014 250.611 160.014 251.114Z" fill="white"/>
<path d="M154.514 266.366C154.514 266.366 154.431 266.494 154.265 266.728C153.093 268.367 147.831 275.043 139.17 276.621L139.237 276.981C149.314 275.134 154.809 266.578 154.822 266.563L154.514 266.366Z" fill="white"/>
<path d="M207.914 247.923H208.279V241.994H207.914V247.923Z" fill="white"/>
<path d="M206.199 248.493H206.564V241.426H206.199V248.493Z" fill="white"/>
<path d="M231.262 205.584L234.138 210.77L234.458 210.593L231.582 205.407" fill="white"/>
<path d="M229.488 205.913L232.918 212.097L233.238 211.92L229.808 205.736" fill="white"/>
<path d="M147.426 218.909C148.574 220.314 149.751 221.692 150.936 223.062C152.127 224.428 153.326 225.785 154.567 227.104C157.012 229.776 159.598 232.311 162.296 234.739C160.86 233.629 159.464 232.462 158.142 231.216C156.818 229.972 155.538 228.681 154.299 227.352C151.85 224.67 149.502 221.889 147.426 218.909Z" fill="white"/>
<path d="M162.957 200.567C162.41 199.639 161.993 198.659 161.566 197.683C161.177 196.689 160.778 195.702 160.512 194.66C161.06 195.586 161.476 196.567 161.904 197.543C162.292 198.536 162.689 199.525 162.957 200.567Z" fill="white"/>
<path d="M150.373 222.609C149.709 222.544 149.09 222.345 148.468 222.159C147.86 221.93 147.246 221.713 146.68 221.363C147.344 221.427 147.962 221.625 148.585 221.813C149.194 222.041 149.805 222.259 150.373 222.609Z" fill="white"/>
<path d="M132.547 256.161C136.753 256.565 140.794 256.769 144.672 256.769C148.548 256.769 152.261 256.565 155.808 256.159L155.766 255.797C152.234 256.202 148.536 256.403 144.672 256.403C140.808 256.403 136.777 256.202 132.582 255.797L132.547 256.161Z" fill="white"/>
<path d="M141.691 256.614L146.031 229.148L145.67 229.091L141.33 256.557" fill="white"/>
<path d="M175.883 156.771C175.763 157.628 175.226 158.262 174.683 158.186C174.14 158.112 173.796 157.355 173.916 156.498C174.035 155.641 174.572 155.007 175.115 155.083C175.659 155.158 176.002 155.913 175.883 156.771Z" fill="#171A24"/>
<path d="M176.813 154.072C176.373 154.05 176.025 153.992 175.676 153.92C175.333 153.85 175.028 153.661 174.683 153.542C173.992 153.336 173.251 153.211 172.485 153.17L172.441 153.12L172.475 153.079C173.217 152.858 174.012 152.762 174.817 152.825C175.217 152.853 175.648 152.865 176.012 153.072C176.367 153.28 176.707 153.562 176.872 154.001L176.841 154.069L176.821 154.072H176.813Z" fill="#F5756C"/>
<path d="M180.087 162.243C180.087 162.243 178.802 161.032 178.602 160.632C178.402 160.233 178.774 161.87 179.315 162.619L180.087 162.243Z" fill="#F7A28C"/>
<path d="M177.16 165.912L177.15 165.911C177.066 165.903 176.545 165.832 176.033 165.585C175.513 165.332 175.038 164.948 174.84 164.286C174.738 163.949 174.384 163.757 174.046 163.859C173.71 163.958 173.518 164.312 173.618 164.649C173.972 165.831 174.881 166.476 175.625 166.796C176.377 167.123 177.013 167.174 177.056 167.179C177.406 167.207 177.713 166.947 177.742 166.597C177.772 166.247 177.51 165.94 177.16 165.912Z" fill="#151A2B"/>
<path d="M161.754 396.653L168.138 396.254C168.138 396.254 181.434 399.658 185.027 403.124C186.038 404.098 185.401 405.807 183.998 405.885C180.522 406.078 171.133 406.274 168.517 405.166L168.294 406.067L161.506 405.558L161.754 396.653Z" fill="#262528"/>
<path d="M110.676 381.836L116.54 384.385C116.54 384.385 126.82 393.463 128.437 398.184C128.891 399.511 127.543 400.743 126.259 400.173C123.076 398.764 114.63 394.665 112.807 392.489L112.198 393.192L106.389 389.649L110.676 381.836Z" fill="#262528"/>
<path d="M240.683 201.658L240.981 202.527C241.206 203.188 241.926 203.541 242.589 203.316L258.834 197.791L257.721 194.526L241.474 200.053C240.811 200.278 240.458 200.997 240.683 201.658Z" fill="#21293F"/>
<path d="M258.834 197.791L261.815 195.321C262.078 195.104 261.933 194.678 261.591 194.666L257.721 194.526L258.834 197.791Z" fill="#21293F"/>
<path d="M260.674 196.266L258.834 197.791L257.721 194.526L260.11 194.613L260.674 196.266Z" fill="#FBC59E"/>
<path d="M353.69 158.324L228.32 232.528L353.69 300.914L479.058 232.528L353.69 158.324Z" fill="#F78F87"/>
<path d="M228.32 232.528V370.024L353.69 438.894V300.914L228.32 232.528Z" fill="#F78D7C"/>
<path d="M479.057 232.528V370.024L353.689 438.894V300.914L479.057 232.528Z" fill="#F5756C"/>
<path d="M227.971 233.167L353.689 301.743L479.407 233.167L478.708 231.89L353.689 300.085L228.669 231.89L227.971 233.167Z" fill="white"/>
<path d="M352.961 441.224H354.418V300.913H352.961V441.224Z" fill="white"/>
<path d="M289.191 303.293C294.199 317.181 288.47 331.958 276.391 336.298C264.315 340.635 250.464 332.894 245.455 319.006C240.446 305.115 246.176 290.339 258.254 286.001C270.331 281.661 284.182 289.404 289.191 303.293Z" fill="#F5756C"/>
<path d="M252.994 323.167C247.984 309.276 253.715 294.501 265.792 290.162C270.422 288.499 275.308 288.624 279.862 290.177C273.592 285.212 265.6 283.361 258.254 286.001C246.176 290.339 240.446 305.115 245.455 319.006C248.543 327.569 254.999 333.784 262.322 336.282C258.284 333.085 254.955 328.606 252.994 323.167Z" fill="#EB5251"/>
<path d="M289.191 303.293L288.505 303.539C289.706 306.87 290.274 310.25 290.274 313.516C290.27 323.561 284.919 332.465 276.145 335.613C273.951 336.4 271.701 336.776 269.453 336.776C259.77 336.784 250.111 329.776 246.141 318.758C244.939 315.427 244.371 312.047 244.371 308.781C244.377 298.736 249.727 289.832 258.501 286.685C260.694 285.897 262.946 285.522 265.194 285.522C274.877 285.514 284.534 292.522 288.505 303.539L289.191 303.293L289.877 303.047C285.717 291.517 275.59 284.075 265.194 284.067C262.783 284.067 260.362 284.47 258.007 285.315C248.558 288.714 242.91 298.24 242.914 308.781C242.914 312.215 243.511 315.763 244.769 319.252C248.93 330.782 259.057 338.222 269.453 338.23C271.863 338.23 274.285 337.828 276.639 336.982C286.089 333.583 291.737 324.057 291.731 313.516C291.731 310.083 291.135 306.536 289.877 303.047L289.191 303.293Z" fill="white"/>
<path d="M412.733 315.023C407.177 330.432 413.533 346.823 426.932 351.637C440.329 356.449 455.696 347.86 461.252 332.453C466.806 317.046 460.45 300.654 447.053 295.839C433.654 291.027 418.29 299.615 412.733 315.023Z" fill="#EF6563"/>
<path d="M452.887 337.07C458.443 321.662 452.086 305.268 438.69 300.456C433.553 298.61 428.133 298.75 423.082 300.473C430.035 294.965 438.902 292.912 447.051 295.839C460.449 300.654 466.805 317.046 461.25 332.453C457.823 341.955 450.663 348.847 442.538 351.619C447.018 348.072 450.71 343.105 452.887 337.07Z" fill="#EB5251"/>
<path d="M412.733 315.023L412.046 314.776C410.654 318.638 409.994 322.564 409.994 326.364C409.989 338.031 416.238 348.564 426.685 352.321C429.287 353.256 431.965 353.701 434.629 353.701C446.123 353.693 457.331 345.462 461.937 332.7C463.329 328.838 463.99 324.912 463.99 321.112C463.994 309.447 457.745 298.912 447.299 295.155C444.697 294.22 442.019 293.775 439.355 293.775C427.859 293.783 416.653 302.013 412.046 314.776L412.733 315.023L413.418 315.27C417.834 303.019 428.573 295.222 439.355 295.23C441.857 295.23 444.363 295.648 446.806 296.525C456.575 300.03 462.527 309.942 462.531 321.112C462.531 324.744 461.901 328.502 460.565 332.207C456.15 344.457 445.41 352.254 434.629 352.246C432.126 352.246 429.621 351.83 427.178 350.953C417.407 347.446 411.455 337.534 411.451 326.364C411.451 322.732 412.082 318.974 413.418 315.27L412.733 315.023Z" fill="white"/>
<path d="M329.001 371.908C332.292 381.034 328.528 390.744 320.591 393.594C312.656 396.446 303.555 391.358 300.263 382.231C296.972 373.106 300.737 363.395 308.673 360.545C316.609 357.694 325.711 362.782 329.001 371.908Z" fill="#F5756C"/>
<path d="M305.216 384.966C301.925 375.84 305.691 366.13 313.627 363.28C316.668 362.187 319.88 362.268 322.871 363.289C318.752 360.027 313.5 358.811 308.673 360.545C300.737 363.395 296.972 373.106 300.263 382.231C302.293 387.859 306.533 391.942 311.347 393.586C308.693 391.483 306.505 388.542 305.216 384.966Z" fill="#EB5251"/>
<path d="M329.002 371.908L328.551 372.069C329.34 374.259 329.714 376.48 329.714 378.625C329.71 385.226 326.195 391.077 320.43 393.144C318.988 393.661 317.508 393.908 316.032 393.908C309.67 393.913 303.323 389.308 300.714 382.07C299.924 379.881 299.551 377.66 299.551 375.515C299.555 368.914 303.071 363.063 308.835 360.995C310.278 360.477 311.756 360.231 313.234 360.231C319.596 360.225 325.942 364.83 328.551 372.069L329.002 371.908L329.452 371.746C326.719 364.17 320.066 359.281 313.234 359.275C311.65 359.275 310.059 359.54 308.511 360.095C302.302 362.328 298.591 368.588 298.594 375.515C298.594 377.771 298.986 380.101 299.812 382.394C302.547 389.97 309.2 394.859 316.032 394.865C317.615 394.865 319.207 394.6 320.754 394.043C326.963 391.81 330.675 385.552 330.671 378.625C330.671 376.369 330.279 374.038 329.452 371.746L329.002 371.908Z" fill="white"/>
<path d="M304.253 200.375L263.684 224.4L264.073 225.053L304.641 201.028" fill="white"/>
<path d="M306.27 192.147L241.035 230.78L241.424 231.433L306.658 192.8" fill="white"/>
<path d="M384.497 224.395C364.03 228.167 343.706 228.222 323.527 224.395C323.527 216.55 329.899 210.19 337.758 210.19H370.266C378.126 210.19 384.497 216.55 384.497 224.395Z" fill="#21293F"/>
<path d="M391.511 180.71L353.69 158.324L315.89 180.697C315.803 175.438 314.675 170.289 312.606 165.546C312.234 162.284 310.218 159.171 307.148 156.571C306.38 155.625 305.566 154.712 304.704 153.836C299.5 148.541 295.12 142.405 291.811 135.651C294.572 133.177 297.767 130.722 296.822 126.498C295.243 119.443 290.803 114.695 285.14 111.928C284.842 108.675 284.772 105.353 284.951 101.982C286.842 66.4074 316.106 37.9472 351.787 36.9797C352.428 36.9624 353.066 36.9531 353.703 36.9531C391.724 36.9531 422.524 67.7276 422.524 105.678C422.524 113.673 421.168 121.35 418.664 128.487C418.235 128.804 417.954 129.323 418.024 129.953C418.032 130.026 418.04 130.098 418.05 130.171C414.691 138.995 409.56 146.947 403.064 153.593C395.928 160.893 391.722 170.538 391.511 180.71Z" fill="#F6DE7C"/>
<path d="M312.606 165.546C311.206 162.337 309.377 159.315 307.149 156.571C310.218 159.171 312.234 162.284 312.606 165.546ZM291.811 135.651C288.242 128.369 285.917 120.371 285.141 111.928C290.803 114.695 295.243 119.443 296.822 126.498C297.767 130.722 294.573 133.177 291.811 135.651Z" fill="#B0C359"/>
<path d="M418.05 130.171C418.041 130.098 418.033 130.026 418.025 129.953C417.954 129.323 418.235 128.804 418.665 128.487C418.467 129.052 418.262 129.613 418.05 130.171Z" fill="#F7C95C"/>
<path d="M380.417 205.282H326.981C320.191 199.614 315.894 190.99 315.894 181.473V181.353C315.894 181.135 315.893 180.915 315.889 180.697L353.689 158.324L391.51 180.71C391.505 180.976 391.502 181.244 391.502 181.511V181.55C391.502 191.064 387.205 199.625 380.417 205.282Z" fill="#F6B652"/>
<path d="M376.209 48.1756L376.223 48.1823C376.658 48.3593 385.748 52.2106 394.644 61.1096C399.093 65.5597 403.497 71.2635 406.79 78.4058C410.082 85.5495 412.272 94.1344 412.273 104.409C412.273 109.45 411.743 114.9 410.553 120.785C410.367 121.696 410.958 122.584 411.873 122.769C412.786 122.953 413.675 122.363 413.861 121.452C415.094 115.36 415.648 109.686 415.648 104.409C415.649 93.4836 413.269 84.2693 409.689 76.6385C404.318 65.1871 396.282 57.3088 389.604 52.2904C382.92 47.2707 377.577 45.0962 377.481 45.0549C376.617 44.7049 375.633 45.1201 375.281 45.9811C374.93 46.8435 375.345 47.8256 376.209 48.1756Z" fill="white"/>
<path d="M360.37 205.283V140.908C360.37 138.607 361.301 136.532 362.811 135.023C364.325 133.515 366.402 132.586 368.709 132.585H370.946C373.251 132.586 375.33 133.515 376.843 135.023C378.354 136.533 379.285 138.607 379.286 140.908C379.285 143.21 378.354 145.285 376.843 146.794C375.33 148.301 373.251 149.232 370.946 149.232H352.518V151.369H354.862V149.232H336.431C334.126 149.232 332.047 148.301 330.535 146.794C329.025 145.285 328.094 143.21 328.093 140.908C328.094 138.607 329.025 136.532 330.535 135.023C332.047 133.515 334.126 132.586 336.431 132.585H338.67C340.975 132.586 343.054 133.515 344.566 135.023C346.078 136.533 347.009 138.607 347.01 140.908V205.283H349.151V140.908C349.15 135.131 344.458 130.449 338.67 130.448H336.431C330.643 130.449 325.953 135.131 325.951 140.908C325.953 146.686 330.643 151.369 336.431 151.369H354.862V149.232H352.518V151.369H370.946C376.734 151.369 381.426 146.686 381.427 140.908C381.426 135.131 376.734 130.449 370.946 130.448H368.709C362.919 130.449 358.229 135.131 358.229 140.908V205.283H360.37Z" fill="white"/>
<path d="M379.279 213.877H328.095C325.573 213.877 323.527 211.836 323.527 209.317C323.527 206.799 325.573 204.758 328.095 204.758H379.279C381.803 204.758 383.849 206.799 383.849 209.317C383.849 211.836 381.803 213.877 379.279 213.877Z" fill="#8E9093"/>
<path d="M327.88 208.498H379.676C379.923 208.498 380.122 208.299 380.122 208.054C380.122 207.808 379.923 207.608 379.676 207.608H327.88C327.634 207.608 327.434 207.808 327.434 208.054C327.434 208.299 327.634 208.498 327.88 208.498Z" fill="white"/>
<path d="M327.701 211.393H379.497C379.743 211.393 379.943 211.193 379.943 210.947C379.943 210.702 379.743 210.502 379.497 210.502H327.701C327.454 210.502 327.254 210.702 327.254 210.947C327.254 211.193 327.454 211.393 327.701 211.393Z" fill="white"/>
<path d="M463.221 129.612L465.786 126.454C467.385 124.484 468.714 122.303 469.769 119.996C470.931 117.452 471.894 115.78 472.253 115.179C472.342 115.032 472.523 114.984 472.682 115.053C482.398 119.248 490.677 118.152 492.475 117.84C492.683 117.805 492.874 117.938 492.918 118.143L494.042 123.421C494.079 123.591 493.99 123.756 493.834 123.835C490.431 125.56 489.994 131.297 489.994 131.297L490.642 130.279C491.578 128.811 493.279 127.877 494.997 128.176C496.182 128.381 497.041 129.181 496.327 131.297C495.083 134.983 491.786 135.679 490.961 135.797C490.837 135.815 490.733 135.894 490.677 136.006L488.81 139.717L491.381 140.176C491.567 140.209 491.702 140.37 491.702 140.559V149.296C491.702 149.434 491.63 149.56 491.51 149.631L479.974 156.365C479.714 156.516 479.387 156.329 479.387 156.029V143.712C479.387 143.5 479.209 143.331 478.998 143.328C472.866 143.267 468.694 141.754 466.362 140.576C464.995 139.886 464.234 138.36 464.505 136.855C464.899 134.664 465.385 132.597 465.917 130.667C465.971 130.46 465.847 130.255 465.638 130.204L463.221 129.612Z" fill="#FBC3A9"/>
<path d="M493.719 151.623L492.741 145.813C492.741 145.813 483.205 146.623 478.109 153.205L477.605 155.978C477.605 155.978 487.071 152.677 493.719 151.623Z" fill="#16181D"/>
<path d="M515.04 238.953C515.04 238.953 480.41 241.113 469.178 234.635C469.178 234.635 487.274 302.292 492.11 315.967C496.946 329.644 505.368 373.189 505.368 373.189H513.048C513.048 373.189 513.794 311.649 505.368 298.694C505.368 298.694 517.536 243.272 515.04 238.953Z" fill="#5662B7"/>
<path d="M469.178 234.635L473.151 309.851L479.486 369.348L488.21 369.231L489.736 308.551L469.178 234.635Z" fill="#5662B7"/>
<path d="M515.536 240.501L469.038 241.314C469.038 241.314 468.418 204.304 475.212 162.015C475.937 157.506 478.946 149.164 489.176 150.211C498.45 151.16 504.17 162.042 508.108 176.667C514.444 200.199 515.536 240.501 515.536 240.501Z" fill="#21293F"/>
<path d="M494.725 246.083C494.735 246.089 500.822 252.461 507.817 254.602L507.917 254.278C504.481 253.229 501.238 251.121 498.861 249.274C497.671 248.352 496.698 247.493 496.022 246.868C495.346 246.241 494.971 245.848 494.97 245.848L494.725 246.083Z" fill="white"/>
<path d="M477.561 251.517L491.145 303.002L491.474 302.917L477.889 251.431" fill="white"/>
<path d="M494.539 315.072L504.515 359.354L504.847 359.279L494.871 314.997" fill="white"/>
<path d="M513.039 372.297L504.704 372.424C504.704 372.424 485.376 377.338 489.252 381.478C489.252 381.478 502.295 382.407 505.599 381.007L506.472 381.751L513.975 381.187L513.039 372.297Z" fill="#262528"/>
<path d="M488.25 369.09L479.915 369.218C479.915 369.218 460.586 374.13 464.463 378.272C464.463 378.272 477.505 379.201 480.809 377.801L481.682 378.544L489.186 377.98L488.25 369.09Z" fill="#262528"/>
<path d="M473.966 126.425C473.695 127.231 473.89 128.023 474.402 128.193C474.912 128.364 475.544 127.847 475.814 127.042C476.084 126.234 475.89 125.443 475.378 125.272C474.867 125.103 474.235 125.618 473.966 126.425Z" fill="#171A24"/>
<path d="M475.267 123.398L474.581 123.356L475.093 123.815C475.147 123.751 475.247 123.633 475.267 123.398L474.581 123.356L475.093 123.815L474.626 123.397L474.903 123.961L475.093 123.815L474.626 123.397L474.903 123.961L474.738 123.625L474.861 123.979L474.903 123.961L474.738 123.625L474.861 123.979C474.897 123.968 475.071 123.936 475.326 123.937C475.927 123.937 477.014 124.088 478.469 124.818C478.814 124.991 479.235 124.853 479.409 124.508C479.583 124.164 479.443 123.743 479.098 123.569C477.461 122.746 476.158 122.539 475.326 122.539C475.041 122.539 474.813 122.563 474.63 122.597L474.37 122.669L474.201 122.753L474.051 122.879C473.991 122.949 473.889 123.072 473.869 123.311C473.845 123.696 474.138 124.028 474.525 124.053C474.911 124.077 475.243 123.784 475.267 123.398Z" fill="#262528"/>
<path d="M465.447 130.144C465.447 130.144 467.134 129.225 467.454 128.86C467.774 128.495 466.931 130.112 466.154 130.751L465.447 130.144Z" fill="#F7A28C"/>
<path d="M467.987 133.986C468.037 134.004 469.123 134.467 470.547 134.471C471.655 134.475 473.019 134.165 474.101 133.052C474.37 132.775 474.365 132.332 474.087 132.063C473.809 131.794 473.366 131.8 473.095 132.078C472.342 132.848 471.423 133.067 470.547 133.072C469.994 133.072 469.477 132.976 469.105 132.879C468.919 132.831 468.77 132.783 468.67 132.749L468.559 132.707L468.531 132.697C468.175 132.546 467.765 132.714 467.614 133.069C467.463 133.426 467.631 133.836 467.987 133.986Z" fill="#262528"/>
<path d="M490.864 133.055C490.771 133.393 490.876 133.717 491.103 133.78C491.328 133.842 491.588 133.619 491.683 133.282C491.777 132.944 491.671 132.618 491.445 132.555C491.219 132.493 490.96 132.715 490.864 133.055Z" fill="#171A24"/>
<path d="M469.02 111.64C468.525 105.919 478.573 105.282 487.784 106.201C496.994 107.119 498.768 112.441 498.768 112.441C504.769 116.3 502.642 122.524 502.641 122.527C502.433 123.135 502.993 124.772 503.037 125.496C503.102 126.546 503.085 127.601 502.972 128.647C502.754 130.661 502.173 132.64 501.165 134.403C500.125 136.223 498.648 137.76 496.9 138.917C496.185 139.389 495.378 139.69 494.786 140.325C494.202 140.949 493.824 141.738 493.406 142.471C493.014 143.162 492.548 144.152 491.702 144.373C490.805 144.607 489.909 143.624 489.384 143.041C488.88 142.479 488.29 141.927 487.94 141.248C487.537 140.469 487.997 140.089 488.356 139.383C488.688 138.724 488.996 138.045 489.357 137.401L489.45 137.219C489.637 136.839 489.817 136.363 490.101 136.097C490.389 135.827 490.782 135.864 491.138 135.744C492.01 135.45 493.373 134.866 493.85 134.026C494.094 133.596 494.284 133.14 494.337 132.654C494.562 130.621 491.466 129.4 490.174 130.957C489.973 131.198 489.824 131.506 489.657 131.769C489.353 132.246 489.049 132.722 488.746 133.198C488.893 129.283 490.345 126.525 491.286 125.133C491.75 124.448 492.088 124.094 492.088 124.094C492.088 124.094 480.994 121.929 478.074 120.618L478.033 120.595C473.609 119.101 469.348 115.424 469.02 111.64Z" fill="#262528"/>
<path d="M499.802 171.098C499.802 171.098 490.714 191.762 471.17 194.711L471.937 186.137C471.937 186.137 494.943 181.932 499.802 171.098Z" fill="#16181D"/>
<path d="M496.787 193.759C496.788 193.763 496.943 195.459 497.176 198.131C497.876 206.148 499.276 222.925 499.276 228.742C499.276 229.476 499.254 230.036 499.207 230.365L499.627 230.423C499.679 230.053 499.7 229.486 499.7 228.742C499.7 220.931 497.211 193.724 497.211 193.72L496.787 193.759Z" fill="#21293F"/>
<path d="M511.448 229.229C511.446 229.229 510.511 229.348 508.738 229.526C503.42 230.062 490.611 231.134 473.266 231.134V231.558C496.415 231.558 511.495 229.65 511.502 229.65L511.448 229.229Z" fill="#21293F"/>
<path d="M403.239 153.83C403.239 153.83 396.002 148.816 394.011 140.57C393.631 138.997 395.492 137.832 396.78 138.814L403.388 143.855L399.203 137.778C399.203 137.778 401.487 136.459 404.195 140.17L404.991 141.242C405.924 142.498 406.999 143.636 408.079 144.77C408.962 145.696 409.942 147.247 409.564 149.362L403.239 153.83Z" fill="#FBC3A9"/>
<path d="M410.221 148.36C409.983 148.53 417.772 155.426 418.466 155.972C426.634 162.384 435.634 167.596 445.872 169.796C455.876 171.947 466.405 171.368 476.11 168.126C478.09 167.465 480.036 166.694 481.933 165.82C481.933 165.82 489.506 160.873 494.084 163.027C503.012 167.224 500.899 177.579 494.886 182.21C494.146 182.779 493.058 183.456 491.7 184.209C467.877 197.438 438.062 192.53 419.138 172.944C414.753 168.408 410.061 163.363 405.157 157.825L402.104 153.945L410.221 148.36Z" fill="#21293F"/>
<path d="M411.908 151.505L405.223 155.799L405.452 156.156L412.139 151.861" fill="#21293F"/>
<path d="M491.543 151.489C491.538 151.491 480.622 156.25 479.215 157.005L479.416 157.377C480.086 157.018 483.174 155.635 486.075 154.353C488.98 153.068 491.707 151.879 491.712 151.877L491.543 151.489Z" fill="#21293F"/>
<path d="M474.188 168.729C475.082 168.227 476.03 167.879 476.976 167.518C477.937 167.204 478.893 166.877 479.906 166.706C479.012 167.209 478.062 167.557 477.117 167.917C476.156 168.23 475.198 168.556 474.188 168.729Z" fill="#21293F"/>
<path d="M498.079 178.263C498.079 178.263 497.94 178.433 497.658 178.743C495.678 180.91 486.764 189.693 471.484 190.803L471.516 191.226C489.159 189.939 498.391 178.55 498.408 178.529L498.079 178.263Z" fill="#21293F"/>
<path d="M493.271 183.225L498.428 182.64L498.38 182.218L493.223 182.803" fill="#21293F"/>
<path d="M513.039 372.297H505.196L504.562 369.09H513.179L513.039 372.297Z" fill="#FBC3A9"/>
<path d="M488.292 365.997H479.131L479.487 369.348L488.211 369.231L488.292 365.997Z" fill="#FBC3A9"/>
<path d="M375.686 180.169C369.468 179.598 366.232 182.314 364.807 184.089C364.204 184.841 363.859 185.758 363.776 186.718C363.456 190.438 362.227 194.079 359.922 197.022C359.619 197.409 359.303 197.786 358.971 198.153C358.827 198.313 358.863 198.559 359.051 198.667L361.683 200.182C362.056 200.407 361.596 201.928 361.532 202.239C360.962 205.056 360.772 207.972 360.494 210.829C360.412 211.682 360.894 212.126 361.668 212.383C362.978 212.82 364.32 213.16 365.68 213.403C366.024 213.462 369.763 213.768 369.758 213.746C369.919 214.438 369.868 215.263 369.868 215.974C369.867 216.944 369.868 217.913 369.868 218.881H385.01V209.893C385.244 199.986 384.775 181.004 375.686 180.169Z" fill="#FBC59E"/>
<path d="M312.475 266.338C312.475 266.338 303.77 263.986 299.01 256.715C298.102 255.33 299.497 253.569 301.077 254.074L309.186 256.669L303.057 252.244C303.057 252.244 304.805 250.188 308.694 252.839L309.831 253.599C311.165 254.489 312.591 255.218 314.023 255.941C315.193 256.532 316.673 257.692 317.035 259.86L312.475 266.338Z" fill="#FBC3A9"/>
<path d="M388.113 217.15C388.113 217.15 380.965 212.755 369.241 217.15L366.512 222.565L388.932 221.359L388.113 217.15Z" fill="#515EB4"/>
<path d="M397.964 226.291C397.964 226.291 409.086 249.586 414.226 276.774C414.226 276.774 410.281 296.354 403.687 305.24C396.359 280.332 391.465 254.16 391.465 254.16L397.964 226.291Z" fill="#515EB4"/>
<path d="M397.964 226.291C397.964 226.291 385.545 212.838 359.843 223.677L355.584 306.704H403.731C403.731 306.704 406.045 259.191 397.964 226.291Z" fill="#5662B7"/>
<path d="M370.544 445.427L362.209 445.368C362.209 445.368 342.776 449.853 346.561 454.079C346.561 454.079 359.579 455.296 362.913 453.97L363.017 454.77L370.617 454.368L370.544 445.427Z" fill="#262528"/>
<path d="M412.572 445.427L404.237 445.368C404.237 445.368 384.805 449.853 388.588 454.079C388.588 454.079 401.605 455.296 404.941 453.97L405.044 454.77L412.645 454.368L412.572 445.427Z" fill="#262528"/>
<path d="M360.991 445.776C360.991 445.776 363.532 448.645 370.163 448.155C370.163 448.155 380.141 410.885 376.792 380.485L379.636 334.424C379.636 334.424 387.107 381.401 389.977 389.042C392.848 396.684 401.512 441.166 403.688 445.394C405.863 449.625 410.283 448.151 412.563 446.528C412.563 446.528 413.948 399.789 405.42 381.245C406.193 351.945 406.691 323.556 403.731 306.704H355.584L360.991 445.776Z" fill="#21293F"/>
<path d="M379.387 326.695C380.472 324.721 382.098 323.098 384.074 322.01L395.71 315.605L393.706 317.684C389.355 322.197 387.012 328.271 387.206 334.529L388.775 385.172L378.171 334.863C377.584 332.083 378.018 329.185 379.387 326.695Z" fill="#171A24"/>
<path d="M360.991 445.777L360.887 443.759C360.887 443.759 367.801 446.12 370.925 445.089L370.565 447.994C370.565 447.994 362.092 448.906 360.991 445.777Z" fill="#FBC3A9"/>
<path d="M403.521 445.019C403.521 445.019 407.028 446.603 412.601 444.664L412.646 446.772C412.646 446.772 405.941 451.189 403.521 445.019Z" fill="#FBC3A9"/>
<path d="M360.783 314.374L362.155 371.369L362.494 371.361L361.123 314.366" fill="white"/>
<path d="M390.941 385.214L403.356 435.47L403.685 435.389L391.272 385.133" fill="white"/>
<path d="M364.092 299.644H364.517V273.502H364.092V299.644Z" fill="#21293F"/>
<path d="M357.488 299.383C357.491 299.383 370.602 300.33 383.32 300.33C389.68 300.33 395.94 300.094 400.43 299.381L400.363 298.963C395.918 299.668 389.668 299.906 383.32 299.906C376.971 299.906 370.52 299.67 365.656 299.433C363.226 299.316 361.191 299.197 359.764 299.108C358.338 299.02 357.522 298.962 357.519 298.96L357.488 299.383Z" fill="#21293F"/>
<path d="M401.459 247.343C401.459 247.346 401.607 248.604 401.828 250.634C402.495 256.718 403.827 269.709 403.826 276.165V276.373L404.251 276.374V276.165C404.25 267.5 401.88 247.299 401.88 247.294L401.459 247.343Z" fill="#21293F"/>
<path d="M357.504 269.272C357.504 269.272 366.78 262.731 370.416 249.833C370.416 249.833 373.747 270.541 357.504 269.272Z" fill="#515EB4"/>
<path d="M359.818 223.7C359.818 223.7 353.003 258.61 338.651 263.24C338.111 263.415 337.583 263.57 337.066 263.709C330.222 265.537 322.915 263.58 317.581 258.927L317.563 258.911L310.91 266.51L315.181 270.236C315.181 270.236 326.122 280.224 342.594 276.699C363.754 272.167 370.415 249.833 370.415 249.833C370.415 249.833 373.623 227.123 359.818 223.7Z" fill="#5662B7"/>
<path d="M319.064 262.953L315.713 267.431L316.053 267.685L319.404 263.206" fill="#21293F"/>
<path d="M370.206 249.797C370.206 249.797 370.178 249.958 370.105 250.267C369.598 252.427 366.958 261.602 357.373 269.104L357.634 269.438C368.71 260.767 370.618 249.897 370.624 249.869L370.206 249.797Z" fill="#21293F"/>
<path d="M369.234 253.985C369.613 253.605 370.064 253.375 370.508 253.132C370.974 252.933 371.434 252.722 371.969 252.659C371.589 253.038 371.138 253.27 370.694 253.512C370.226 253.711 369.765 253.921 369.234 253.985Z" fill="#21293F"/>
<path d="M367.592 221.295C367.594 221.295 367.987 221.187 368.678 221.025C370.75 220.534 375.474 219.554 380.016 219.554C382.278 219.554 384.494 219.798 386.308 220.455L386.452 220.058C384.567 219.375 382.308 219.131 380.016 219.131C373.88 219.133 367.49 220.885 367.48 220.887L367.592 221.295Z" fill="#21293F"/>
<path d="M364.113 195.273C364.029 196.034 364.353 196.694 364.834 196.747C365.317 196.799 365.776 196.226 365.86 195.465C365.944 194.703 365.621 194.043 365.138 193.99C364.656 193.938 364.197 194.512 364.113 195.273Z" fill="#171A24"/>
<path d="M364.238 192.365L363.614 192.327L364.081 192.743C364.13 192.685 364.221 192.577 364.238 192.365L363.614 192.327L364.081 192.743L363.661 192.368L363.91 192.875L364.081 192.743L363.661 192.368L363.91 192.875L363.771 192.594L363.874 192.89L363.91 192.875L363.771 192.594L363.874 192.89L363.905 192.883C363.975 192.867 364.137 192.844 364.361 192.846C364.971 192.846 366.067 192.997 367.53 193.732C367.843 193.89 368.226 193.764 368.385 193.45C368.543 193.137 368.417 192.755 368.102 192.597C366.474 191.778 365.181 191.573 364.361 191.573C364.078 191.573 363.854 191.597 363.675 191.632L363.426 191.7L363.269 191.778L363.131 191.896C363.077 191.959 362.985 192.073 362.966 192.287C362.945 192.637 363.211 192.939 363.562 192.96C363.914 192.983 364.215 192.717 364.238 192.365Z" fill="#27316B"/>
<path d="M361.207 199.849C361.207 199.849 362.892 198.931 363.212 198.567C363.532 198.202 362.692 199.82 361.915 200.459L361.207 199.849Z" fill="#F7A28C"/>
<path d="M361.789 204.936C361.821 204.941 362.219 205.028 362.795 205.028C363.272 205.028 363.875 204.969 364.492 204.737C365.108 204.506 365.741 204.084 366.203 203.391C366.397 203.098 366.317 202.704 366.024 202.51C365.732 202.315 365.336 202.394 365.141 202.687C364.843 203.133 364.463 203.387 364.041 203.548C363.621 203.707 363.165 203.757 362.795 203.757C362.572 203.757 362.38 203.739 362.249 203.722L362.1 203.701L362.065 203.694L362.061 203.693C361.717 203.618 361.379 203.835 361.304 204.179C361.228 204.522 361.447 204.86 361.789 204.936Z" fill="#151A2B"/>
<path d="M372.003 197.776C371.909 198.116 372.015 198.44 372.241 198.503C372.467 198.567 372.727 198.343 372.82 198.005C372.916 197.666 372.808 197.341 372.584 197.278C372.357 197.216 372.097 197.438 372.003 197.776Z" fill="#171A24"/>
<path d="M390.482 207.108C394.554 202.711 400.868 194.851 397.186 182.278C393.86 170.926 383.776 170.267 378.88 170.444C377.363 170.5 375.992 169.554 375.543 168.108L375.526 168.049C375.115 166.731 373.682 165.988 372.379 166.447C369.476 167.473 368.346 169.683 367.904 171.25C367.714 171.926 366.868 172.135 366.366 171.662C365.13 170.498 363.23 170.593 362.404 172.076C360.116 176.189 362.152 180.66 362.152 180.66C360.235 180.562 358.891 182.638 359.868 184.289C361.539 187.099 364.932 188.184 366.876 188.586C367.76 188.768 368.428 189.479 368.555 190.369L369.728 198.625C369.968 197.97 370.207 197.317 370.446 196.662C370.694 195.988 370.988 194.267 371.744 194.041C373.867 193.402 375.751 194.868 375.434 197.084C374.934 200.577 371.342 200.595 371.342 200.595L371.698 202.701C372.482 207.329 376.498 210.715 381.199 210.715H382.08C383.062 210.715 383.948 211.3 384.336 212.199L385.052 213.867L386.411 211.22C386.584 210.884 386.832 210.592 387.127 210.356C387.762 209.844 388.342 209.318 388.932 208.758L389.056 208.626C389.563 208.127 390.043 207.621 390.482 207.108Z" fill="#222B5B"/>
<path d="M307.916 257.278L308.469 256.545C308.889 255.988 308.778 255.194 308.22 254.774L294.516 244.46L292.436 247.212L306.14 257.526C306.698 257.948 307.494 257.836 307.916 257.278Z" fill="#21293F"/>
<path d="M294.515 244.46L290.794 243.385C290.466 243.292 290.195 243.651 290.377 243.937L292.435 247.212L294.515 244.46Z" fill="#21293F"/>
<path d="M292.219 243.798L294.517 244.46L292.437 247.212L291.166 245.192L292.219 243.798Z" fill="#FBC59E"/>
<path d="M235.398 418.847L243.016 420.939C248.812 422.532 254.802 419.133 256.397 413.348L295.52 271.48L266.916 263.621L227.793 405.491C226.198 411.276 229.604 417.255 235.398 418.847Z" fill="#5662B7"/>
<path d="M295.52 271.48L292.336 238.422C292.056 235.516 288.331 234.493 286.6 236.845L266.916 263.621L295.52 271.48Z" fill="#5662B7"/>
<path d="M293.555 251.074L295.52 271.48L266.916 263.621L279.067 247.094L293.555 251.074Z" fill="#FBC59E"/>
<path d="M102.627 167.588C101.47 167.588 100.355 167.763 99.3001 168.077C99.7329 166.859 99.9813 165.555 99.9813 164.191C99.9813 157.774 94.7689 152.572 88.3392 152.572C81.91 152.572 76.698 157.774 76.698 164.191C76.698 165.397 76.8818 166.56 77.2241 167.654C76.8209 167.611 76.4126 167.588 75.9985 167.588C69.5689 167.588 64.3574 172.79 64.3574 179.208C64.3574 185.209 68.9157 190.145 74.7657 190.76V190.761L74.7766 190.763C75.1782 190.804 75.5861 190.827 75.9985 190.827C76.396 190.827 76.7876 190.807 77.1746 190.768L102.627 190.827C109.057 190.827 114.268 185.625 114.268 179.208C114.268 172.79 109.057 167.588 102.627 167.588Z" fill="#D9DBF1"/>
<path d="M633.307 227.915L607.889 227.856C607.491 227.895 607.089 227.915 606.681 227.915C606.253 227.915 605.834 227.892 605.422 227.851H604.746V227.763C598.847 226.835 594.339 221.744 594.338 215.595C594.338 208.792 599.863 203.278 606.681 203.278C606.779 203.278 606.878 203.279 606.977 203.282C606.782 202.411 606.679 201.506 606.679 200.579C606.679 193.776 612.205 188.261 619.022 188.261C625.838 188.261 631.362 193.776 631.363 200.579C631.363 201.586 631.235 202.563 631.005 203.496C631.75 203.354 632.521 203.278 633.309 203.278V203.978V204.676C632.222 204.676 631.175 204.839 630.182 205.134L628.861 205.528L629.322 204.231C629.73 203.083 629.961 201.859 629.961 200.579C629.961 197.562 628.738 194.836 626.758 192.858C624.775 190.88 622.045 189.66 619.022 189.66C615.998 189.66 613.267 190.88 611.285 192.858C609.303 194.836 608.081 197.562 608.081 200.579C608.081 201.714 608.254 202.807 608.574 203.834L608.891 204.849L607.833 204.738C607.453 204.698 607.069 204.676 606.681 204.676C603.657 204.676 600.926 205.898 598.943 207.874C596.963 209.853 595.739 212.579 595.739 215.595C595.738 221.235 600.026 225.876 605.521 226.453L605.583 226.46C605.946 226.496 606.311 226.516 606.681 226.516C607.053 226.516 607.421 226.497 607.786 226.46L607.822 226.456L633.309 226.516C636.333 226.516 639.062 225.296 641.045 223.318C643.026 221.339 644.249 218.614 644.249 215.595C644.249 212.579 643.026 209.853 641.045 207.874C639.062 205.898 636.333 204.676 633.309 204.676V203.978V203.278C640.125 203.278 645.65 208.792 645.65 215.595C645.65 222.4 640.125 227.915 633.307 227.915Z" fill="#F4CE47"/>
<path d="M245.805 32.8425V32.1771C244.581 32.1771 243.399 32.3607 242.287 32.6921L242.477 33.3309L243.106 33.5531C243.562 32.2716 243.825 30.8902 243.825 29.4449C243.825 22.6593 238.314 17.1605 231.517 17.1605C224.719 17.1605 219.209 22.6593 219.209 29.4449C219.209 30.7185 219.403 31.9482 219.765 33.1059L220.401 32.9077L220.47 32.2463C220.046 32.2023 219.615 32.1771 219.175 32.1771C212.378 32.1771 206.867 37.6772 206.867 44.4616C206.869 50.8081 211.686 56.0261 217.873 56.6769L217.943 56.0142H217.277V56.0168V56.6822H217.954V56.0168L217.885 56.6782C218.307 56.7221 218.738 56.7461 219.175 56.7461C219.595 56.7461 220.01 56.7248 220.418 56.6836L220.351 56.0222L220.35 56.6875L245.802 56.7461H245.805C252.602 56.7461 258.111 51.2459 258.111 44.4616C258.111 37.6772 252.602 32.1771 245.805 32.1771V32.8425V33.5078C248.837 33.5078 251.577 34.7322 253.565 36.7164C255.551 38.7006 256.778 41.4354 256.778 44.4616C256.778 47.4891 255.551 50.2226 253.565 52.2068C251.577 54.191 248.837 55.4153 245.805 55.4153L220.318 55.3568L220.285 55.3594C219.919 55.3967 219.55 55.4153 219.175 55.4153C218.787 55.4153 218.403 55.394 218.022 55.3554L217.989 55.3514H217.943V56.0168H218.61V56.0142V55.4153L218.013 55.3528C212.501 54.7739 208.199 50.1201 208.201 44.4616C208.201 41.4354 209.427 38.7006 211.415 36.7164C213.403 34.7322 216.143 33.5078 219.175 33.5078C219.565 33.5078 219.95 33.5291 220.331 33.5691L221.339 33.6755L221.038 32.7094C220.715 31.678 220.542 30.5841 220.542 29.4449C220.542 26.4174 221.769 23.684 223.757 21.6998C225.745 19.7156 228.483 18.4912 231.517 18.4912C234.549 18.4912 237.289 19.7156 239.277 21.6998C241.265 23.684 242.491 26.4174 242.491 29.4449C242.491 30.7292 242.258 31.9561 241.849 33.1073L241.41 34.3423L242.667 33.9683C243.663 33.6715 244.714 33.5078 245.805 33.5078V32.8425Z" fill="#F78D7C"/>
<path d="M502.564 62.596C501.678 62.596 500.824 62.7291 500.018 62.97C500.348 62.0384 500.538 61.0403 500.538 59.9956C500.538 55.0824 496.548 51.1006 491.626 51.1006C486.703 51.1006 482.714 55.0824 482.714 59.9956C482.714 60.9192 482.855 61.8082 483.116 62.6466C482.807 62.6133 482.495 62.596 482.179 62.596C477.255 62.596 473.266 66.5777 473.266 71.491C473.266 76.0862 476.755 79.8643 481.235 80.3354V80.3368H481.243C481.55 80.3687 481.862 80.386 482.179 80.386C482.482 80.386 482.783 80.3714 483.079 80.3408L502.564 80.386C507.486 80.386 511.475 76.4043 511.475 71.491C511.475 66.5777 507.486 62.596 502.564 62.596Z" fill="#D9DBF1"/>
<path d="M228.881 425.026C228.881 425.026 220.085 420.392 220.915 415.939C221.744 411.488 229.92 417.484 229.92 417.484C229.92 417.484 214.551 396.977 236.723 384.773C256.732 373.761 252.761 414.721 252.761 414.721C252.761 414.721 257.277 409.147 261.856 410.35C267.764 411.902 256.388 425.026 256.388 425.026C256.388 425.026 246.787 425.881 228.881 425.026Z" fill="#6DCDB9"/>
<path d="M242.628 415.939L242.977 415.943C242.977 415.942 242.986 415.111 243.074 413.852C243.205 411.964 243.514 409.124 244.22 406.773C244.57 405.599 245.024 404.547 245.577 403.81C246.137 403.069 246.76 402.656 247.51 402.628H247.557C247.938 402.632 248.222 402.774 248.501 403.082C248.914 403.545 249.237 404.413 249.429 405.52C249.625 406.627 249.705 407.97 249.704 409.393C249.705 412.037 249.433 414.956 249.16 417.21C249.024 418.337 248.888 419.299 248.785 419.978C248.684 420.657 248.616 421.051 248.616 421.052L249.297 421.209C249.298 421.206 249.524 420.434 249.914 419.267C250.5 417.517 251.454 414.89 252.554 412.72C253.104 411.635 253.69 410.665 254.269 409.985C254.848 409.298 255.409 408.944 255.833 408.955L255.92 408.959H255.921C256.142 408.99 256.252 409.071 256.381 409.32C256.501 409.567 256.572 409.98 256.569 410.499C256.574 412.432 255.653 415.737 254.722 418.514C254.258 419.906 253.794 421.173 253.445 422.091C253.097 423.009 252.866 423.575 252.866 423.576L253.494 423.881L253.552 423.787C253.69 423.566 254.074 422.992 254.605 422.492C255.138 421.986 255.806 421.575 256.49 421.579C256.608 421.579 256.728 421.591 256.85 421.616C256.973 421.643 257.01 421.677 257.04 421.715C257.068 421.752 257.096 421.825 257.096 421.957C257.101 422.259 256.92 422.798 256.621 423.381C256.176 424.26 255.492 425.268 254.921 426.049C254.636 426.439 254.378 426.773 254.193 427.01C254.008 427.247 253.896 427.383 253.896 427.383L254.166 427.605L254.025 427.285L253.866 427.349C253.1 427.651 249.618 428.892 244.276 428.892C241.222 428.892 237.561 428.487 233.446 427.269L233.348 427.605L233.529 427.305C233.528 427.305 233.157 427.081 232.592 426.697C231.744 426.122 230.47 425.193 229.422 424.174C228.368 423.16 227.581 422.03 227.598 421.217C227.601 420.907 227.69 420.638 227.921 420.364C228.346 419.874 228.81 419.702 229.356 419.697C230.357 419.687 231.609 420.394 232.574 421.134C233.058 421.502 233.474 421.872 233.769 422.147C233.916 422.286 234.032 422.401 234.11 422.481L234.23 422.604L235.537 424.002L234.81 422.232C234.809 422.231 234.564 421.633 234.193 420.622C233.076 417.591 230.849 410.85 230.853 405.761C230.849 403.344 231.361 401.343 232.602 400.27L232.626 400.249L232.645 400.225V400.224C232.68 400.181 233.142 399.669 233.861 399.675C234.581 399.673 235.744 400.167 237.221 402.506C238.692 404.838 240.429 408.964 242.289 416.028L242.949 418.535L242.977 415.943L242.628 415.939L242.966 415.851C241.094 408.747 239.346 404.567 237.814 402.133C236.289 399.709 234.934 398.979 233.861 398.977C232.734 398.986 232.125 399.758 232.097 399.789L232.372 400.007L232.141 399.743C230.652 401.055 230.156 403.263 230.152 405.761C230.16 412.789 234.158 422.476 234.162 422.497L234.486 422.365L234.742 422.126C234.733 422.118 234.018 421.351 232.998 420.578C231.974 419.809 230.662 419.006 229.356 418.997C228.646 418.992 227.932 419.266 227.388 419.91C227.054 420.297 226.896 420.758 226.898 421.217C226.904 422.026 227.334 422.814 227.926 423.569C229.712 425.826 233.15 427.891 233.166 427.904L233.204 427.927L233.248 427.94C237.43 429.178 241.16 429.591 244.276 429.591C250.506 429.591 254.276 427.939 254.308 427.925L254.384 427.891L254.437 427.827C254.441 427.822 255.266 426.818 256.096 425.598C256.512 424.988 256.928 424.324 257.246 423.696C257.562 423.064 257.79 422.483 257.796 421.957C257.797 421.729 257.748 421.499 257.606 421.303C257.465 421.108 257.24 420.979 256.99 420.931C256.821 420.896 256.654 420.88 256.49 420.88C255.385 420.887 254.498 421.582 253.878 422.228C253.258 422.882 252.894 423.521 252.886 423.535L253.19 423.708L253.514 423.84C253.517 423.836 254.452 421.542 255.388 418.735C256.322 415.922 257.265 412.621 257.27 410.499C257.269 409.923 257.204 409.426 257.014 409.02C256.833 408.617 256.461 408.302 255.99 408.263H255.992L255.833 408.255C255.312 408.256 254.83 408.503 254.386 408.874C252.849 410.179 251.461 413.183 250.389 415.896C249.326 418.606 248.626 421.007 248.625 421.013L248.961 421.11L249.306 421.169C249.308 421.16 250.404 414.771 250.405 409.393C250.404 407.461 250.266 405.661 249.868 404.301C249.666 403.623 249.401 403.048 249.026 402.62C248.656 402.193 248.144 401.924 247.557 401.928L247.485 401.93C246.81 401.952 246.209 402.221 245.708 402.646C244.829 403.392 244.213 404.594 243.74 405.971C242.337 410.1 242.28 415.918 242.277 415.935L242.628 415.939Z" fill="white"/>
<path d="M480.169 465.997C480.169 465.997 465.053 458.033 466.477 450.381C467.904 442.729 481.957 453.034 481.957 453.034C481.957 453.034 455.539 417.79 493.648 396.816C528.037 377.89 521.212 448.289 521.212 448.289C521.212 448.289 528.973 438.706 536.844 440.774C546.999 443.44 527.447 465.997 527.447 465.997C527.447 465.997 510.945 467.468 480.169 465.997Z" fill="#6DCDB9"/>
<path d="M503.798 450.381L504.148 450.385C504.148 450.385 504.152 450.028 504.176 449.396C504.254 447.188 504.568 441.642 505.738 436.649C506.321 434.154 507.122 431.797 508.192 430.08C509.269 428.355 510.566 427.309 512.18 427.253L512.27 427.252C512.998 427.256 513.569 427.546 514.081 428.12C514.845 428.978 515.398 430.505 515.736 432.431C516.076 434.357 516.212 436.677 516.212 439.131C516.212 443.692 515.744 448.716 515.274 452.595C515.041 454.536 514.806 456.192 514.63 457.36C514.454 458.53 514.338 459.208 514.338 459.211L515.02 459.367C515.021 459.364 515.409 458.032 516.082 456.023C517.09 453.008 518.734 448.485 520.634 444.735C521.584 442.86 522.598 441.178 523.613 439.985C524.629 438.785 525.636 438.115 526.494 438.125L526.669 438.134C527.14 438.189 527.422 438.412 527.662 438.897C527.893 439.378 528.013 440.118 528.012 441.03C528.017 444.419 526.424 450.098 524.824 454.885C524.025 457.281 523.225 459.461 522.625 461.042C522.026 462.623 521.628 463.6 521.626 463.601L522.256 463.906L522.36 463.736C522.604 463.343 523.273 462.345 524.21 461.46C525.15 460.571 526.345 459.819 527.622 459.823C527.842 459.823 528.065 459.845 528.293 459.891C528.55 459.947 528.681 460.039 528.772 460.16C528.861 460.281 528.916 460.463 528.916 460.723C528.921 461.323 528.593 462.264 528.073 463.283C527.297 464.818 526.116 466.556 525.13 467.904C524.638 468.577 524.194 469.155 523.874 469.563C523.554 469.972 523.36 470.209 523.358 470.209L523.63 470.431L523.489 470.11C523.489 470.11 523.397 470.151 523.206 470.226C521.868 470.752 515.852 472.894 506.63 472.894C501.36 472.894 495.042 472.194 487.946 470.096L487.848 470.431L488.029 470.132C488.029 470.132 487.869 470.035 487.585 469.855C486.592 469.221 484.094 467.568 481.862 465.583C480.746 464.59 479.696 463.514 478.936 462.453C478.173 461.391 477.713 460.348 477.716 459.45C477.718 458.865 477.896 458.334 478.33 457.823C479.104 456.925 479.99 456.592 480.986 456.587C482.817 456.577 484.992 457.827 486.67 459.11C487.512 459.748 488.234 460.389 488.744 460.869C489 461.109 489.201 461.309 489.338 461.448C489.477 461.588 489.548 461.663 489.548 461.663L490.857 463.064L490.129 461.292C490.128 461.29 489.704 460.258 489.064 458.516C487.142 453.293 483.305 441.703 483.309 432.888C483.305 428.705 484.178 425.191 486.401 423.261L486.17 422.998L486.397 423.264L486.43 423.239C486.614 423.097 487.514 422.476 488.845 422.477C490.448 422.481 492.768 423.354 495.392 427.316C498.006 431.275 500.866 438.305 503.456 450.455L504.113 453.54L504.148 450.385L503.798 450.381L504.141 450.309C501.54 438.11 498.668 431.012 495.976 426.931C493.293 422.854 490.732 421.775 488.845 421.779C487.069 421.781 485.977 422.705 485.944 422.731L485.94 422.734C483.469 424.904 482.612 428.624 482.608 432.888C482.616 444.883 489.477 461.537 489.48 461.558L489.805 461.425L490.061 461.187C490.052 461.178 488.829 459.87 487.096 458.554C485.357 457.242 483.122 455.897 480.986 455.888C479.826 455.883 478.689 456.316 477.797 457.369C477.26 457.994 477.013 458.716 477.016 459.45C477.021 460.745 477.725 462.062 478.728 463.341C481.746 467.16 487.65 470.716 487.666 470.729L487.705 470.753L487.748 470.766C494.912 472.885 501.298 473.593 506.63 473.593C517.294 473.593 523.738 470.765 523.772 470.75L523.848 470.717L523.901 470.652C523.905 470.648 525.318 468.927 526.738 466.841C527.448 465.797 528.16 464.663 528.698 463.599C529.236 462.53 529.612 461.546 529.617 460.723C529.617 460.368 529.541 460.028 529.338 459.748C529.137 459.468 528.816 459.282 528.433 459.207C528.158 459.15 527.888 459.125 527.622 459.125C525.84 459.131 524.36 460.27 523.317 461.363C522.273 462.462 521.656 463.545 521.648 463.56L521.952 463.733L522.276 463.865C522.278 463.861 523.882 459.921 525.489 455.106C527.094 450.283 528.708 444.608 528.712 441.03C528.71 440.059 528.597 439.236 528.296 438.597C528.004 437.958 527.458 437.5 526.738 437.438L526.494 437.426C525.684 437.428 524.908 437.815 524.17 438.431C521.605 440.597 519.202 445.75 517.372 450.4C515.55 455.044 514.349 459.166 514.346 459.172L514.684 459.27L515.029 459.328C515.03 459.319 516.912 448.343 516.913 439.131C516.912 435.824 516.673 432.746 516 430.451C515.661 429.304 515.214 428.348 514.606 427.657C514.002 426.965 513.204 426.549 512.27 426.554L512.156 426.555C511.057 426.591 510.082 427.024 509.254 427.726C507.802 428.957 506.752 430.985 505.949 433.331C503.554 440.365 503.45 450.36 503.448 450.377L503.798 450.381Z" fill="white"/>
<path d="M200.703 373.02C200.703 373.02 174.873 328.98 182.551 299.42L196.809 307.271L184.743 286.878C184.743 286.878 208.555 257 231.648 284.602L217.277 297.592L236.495 294.799L236.229 312.13L214.453 325.56L231.819 323.468C231.819 323.468 221.585 356.594 200.703 373.02Z" fill="#38437F"/>
<path d="M205.383 301.482L199.518 390.143L200.156 390.186L206.022 301.524" fill="#202740"/>
<path d="M195.643 378.539L195.931 377.938C195.93 377.937 195.801 377.876 195.549 377.752C193.654 376.818 185.001 372.418 175.945 365.748C166.883 359.084 157.447 350.126 153.926 340.235L153.298 340.458L153.359 341.121L167.961 339.777L149.65 331.144L149.365 331.745L150.03 331.796C150.03 331.796 150.035 331.72 150.051 331.562C150.171 330.381 150.878 324.918 153.643 319.828C155.025 317.281 156.913 314.832 159.478 313.027C162.046 311.221 165.289 310.04 169.475 310.038C171.799 310.038 174.414 310.405 177.355 311.246L177.538 310.606L176.89 310.449L172.931 326.682L184.725 315.92L191.246 325.838L182.302 345.764L194.489 335.176L194.051 334.675L193.413 334.869C193.414 334.87 193.471 335.06 193.578 335.433C194.319 338.037 197.303 349.33 197.301 361.674C197.302 367.254 196.691 373.045 195.009 378.338L195.643 378.539L196.279 378.74C198.018 373.269 198.634 367.349 198.634 361.674C198.631 347.329 194.697 334.515 194.689 334.48L194.387 333.499L185.995 340.791L192.762 325.717L184.981 313.882L175.262 322.752L178.338 310.143L177.722 309.966C174.679 309.097 171.941 308.707 169.475 308.707C164.739 308.703 161.017 310.157 158.163 312.339C153.879 315.615 151.537 320.458 150.241 324.462C148.947 328.47 148.703 331.66 148.701 331.695L148.666 332.151L162.977 338.898L152.382 339.874L152.67 340.682C156.626 351.717 167.309 361.273 176.977 368.136C186.649 374.993 195.335 379.128 195.357 379.139L196.047 379.468L196.279 378.74L195.643 378.539Z" fill="#60C8B0"/>
<path d="M168.316 332.157L202.103 389.691L202.583 389.41L168.798 331.875" fill="#459C85"/>
<path d="M192.93 387.207C192.93 387.207 204.598 377.443 207.011 383.392C209.426 389.343 211.132 401.982 209.452 401.438C207.772 400.892 192.93 387.207 192.93 387.207Z" fill="#FEF4E9"/>
<path d="M374.338 307.703C376.913 307.703 376.917 303.711 374.338 303.711C371.765 303.711 371.76 307.703 374.338 307.703Z" fill="#4BAD99"/>
</g>
<defs>
<clipPath id="clip0_113_3">
<rect width="667" height="509" fill="white"/>
</clipPath>
</defs>
</svg>
