<svg width="18" height="18" viewBox="0 0 18 18" fill="none" xmlns="http://www.w3.org/2000/svg">
<g clip-path="url(#clip0_10_26)">
<path d="M18 2.2104C17.9648 2.27892 17.9296 2.34743 17.8943 2.41214C17.683 2.78135 17.3352 2.97166 16.8641 2.99831C16.8156 3.00211 16.7716 2.99831 16.7232 2.99831C11.5718 2.99831 6.42478 2.99831 1.27339 2.99831C0.815489 2.99831 0.428034 2.8727 0.181471 2.52633C-0.302847 1.845 0.234306 1.03426 1.17653 1C1.21175 1 1.24697 1 1.2822 1C6.42478 1 11.5718 1 16.7144 1C17.2383 1 17.6478 1.16367 17.8899 1.58617C17.934 1.6623 17.9648 1.74223 18 1.81835C18 1.94777 18 2.07718 18 2.2104Z" fill="#298EC6"/>
<path d="M18 16.2121C17.9648 16.2806 17.9295 16.3453 17.8899 16.4138C17.6697 16.8021 17.2954 16.981 16.8065 17C16.7757 17 16.7493 17 16.7184 17C11.5746 17 6.42639 17 1.28256 17C0.811339 17 0.414983 16.8744 0.168361 16.509C-0.285247 15.8391 0.225612 15.0474 1.12842 15.0017C1.18127 14.9979 1.23412 15.0017 1.28697 15.0017C6.43079 15.0017 11.579 15.0017 16.7229 15.0017C17.2425 15.0017 17.6433 15.1654 17.8855 15.5764C17.9339 15.6564 17.9648 15.7401 18 15.8239C18 15.9495 18 16.0789 18 16.2121Z" fill="#298EC6"/>
<path d="M5.98632 9.9962C4.41956 9.9962 2.85279 9.9962 1.29061 9.9962C0.70422 9.9962 0.23694 9.74139 0.0720173 9.34207C-0.207435 8.65751 0.35605 8.00718 1.24938 8.00338C2.06483 7.99577 2.88028 8.00338 3.70031 8.00338C6.03213 8.00338 8.36853 8.00338 10.7004 8.00338C11.2913 8.00338 11.7494 8.24678 11.9235 8.65371C12.2167 9.34207 11.6349 10 10.7233 10C9.14275 9.9962 7.56225 9.9962 5.98632 9.9962Z" fill="#298EC6"/>
</g>
<defs>
<clipPath id="clip0_10_26">
<rect width="18" height="18" fill="white" transform="matrix(-1 0 0 1 18 0)"/>
</clipPath>
</defs>
</svg>
